HIERARCHY
ROOT Junyuan_V1:Solving:Hips
{
	OFFSET 0.000000 0.000000 0.000000
	CHANNELS 6 Xposition Yposition Zposition Xrotation Yrotation Zrotation
	JOINT Junyuan_V1:Solving:Spine
	{
		OFFSET 0.000000 -8.943189 2.778120
		CHANNELS 6 Xposition Yposition Zposition Xrotation Yrotation Zrotation
		JOINT Junyuan_V1:Solving:Spine1
		{
			OFFSET 0.000000 -9.944814 1.753542
			CHANNELS 6 Xposition Yposition Zposition Xrotation Yrotation Zrotation
			JOINT Junyuan_V1:Solving:Spine2
			{
				OFFSET 0.000000 -10.059801 0.880121
				CHANNELS 6 Xposition Yposition Zposition Xrotation Yrotation Zrotation
				JOINT Junyuan_V1:Solving:Spine3
				{
					OFFSET 0.000000 -10.098228 0.000000
					CHANNELS 6 Xposition Yposition Zposition Xrotation Yrotation Zrotation
					JOINT Junyuan_V1:Solving:Neck
					{
						OFFSET 0.000000 -12.983437 -1.298342
						CHANNELS 6 Xposition Yposition Zposition Xrotation Yrotation Zrotation
						JOINT Junyuan_V1:Solving:Neck1
						{
							OFFSET 0.000000 -8.085114 -0.707354
							CHANNELS 6 Xposition Yposition Zposition Xrotation Yrotation Zrotation
							JOINT Junyuan_V1:Solving:Head
							{
								OFFSET 0.000000 -7.992695 -1.409326
								CHANNELS 6 Xposition Yposition Zposition Xrotation Yrotation Zrotation
								JOINT Junyuan_V1:Solving:HeadEnd
								{
									OFFSET 0.000000 -9.728081 0.000002
									CHANNELS 6 Xposition Yposition Zposition Xrotation Yrotation Zrotation
									End Site
									{
										OFFSET 0.000000 -9.728081 0.000002
									}
								}
							}
						}
					}
					JOINT Junyuan_V1:Solving:RightShoulder
					{
						OFFSET 0.000000 -9.273884 -6.154356
						CHANNELS 6 Xposition Yposition Zposition Xrotation Yrotation Zrotation
						JOINT Junyuan_V1:Solving:RightArm
						{
							OFFSET -19.110832 -0.000008 0.000000
							CHANNELS 6 Xposition Yposition Zposition Xrotation Yrotation Zrotation
							JOINT Junyuan_V1:Solving:RightForeArm
							{
								OFFSET -27.916382 -0.000008 0.000000
								CHANNELS 6 Xposition Yposition Zposition Xrotation Yrotation Zrotation
								JOINT Junyuan_V1:Solving:RightHand
								{
									OFFSET -21.757072 -0.000008 0.000000
									CHANNELS 6 Xposition Yposition Zposition Xrotation Yrotation Zrotation
									JOINT Junyuan_V1:Solving:RightHandThumb1
									{
										OFFSET -3.656471 2.766285 -2.718907
										CHANNELS 6 Xposition Yposition Zposition Xrotation Yrotation Zrotation
										End Site
										{
											OFFSET -5.307442 0.000000 -5.356520
										}
									}
									JOINT Junyuan_V1:Solving:RightHandMiddle1
									{
										OFFSET -9.750572 -0.000004 0.062504
										CHANNELS 6 Xposition Yposition Zposition Xrotation Yrotation Zrotation
										End Site
										{
											OFFSET -7.540642 -0.000004 0.000000
										}
									}
								}
							}
						}
					}
					JOINT Junyuan_V1:Solving:LeftShoulder
					{
						OFFSET 0.000000 -9.273884 -6.154356
						CHANNELS 6 Xposition Yposition Zposition Xrotation Yrotation Zrotation
						JOINT Junyuan_V1:Solving:LeftArm
						{
							OFFSET 19.110832 -0.000008 0.000000
							CHANNELS 6 Xposition Yposition Zposition Xrotation Yrotation Zrotation
							JOINT Junyuan_V1:Solving:LeftForeArm
							{
								OFFSET 27.916382 -0.000008 0.000000
								CHANNELS 6 Xposition Yposition Zposition Xrotation Yrotation Zrotation
								JOINT Junyuan_V1:Solving:LeftHand
								{
									OFFSET 21.757072 -0.000008 0.000000
									CHANNELS 6 Xposition Yposition Zposition Xrotation Yrotation Zrotation
									JOINT Junyuan_V1:Solving:LeftHandThumb1
									{
										OFFSET 3.656471 2.766285 -2.718907
										CHANNELS 6 Xposition Yposition Zposition Xrotation Yrotation Zrotation
										End Site
										{
											OFFSET 5.307442 0.000000 -5.356520
										}
									}
									JOINT Junyuan_V1:Solving:LeftHandMiddle1
									{
										OFFSET 9.750572 -0.000004 0.062504
										CHANNELS 6 Xposition Yposition Zposition Xrotation Yrotation Zrotation
										End Site
										{
											OFFSET 7.540642 -0.000004 0.000000
										}
									}
								}
							}
						}
					}
				}
			}
		}
	}
	JOINT Junyuan_V1:Solving:RightUpLeg
	{
		OFFSET -8.521003 0.000000 0.000000
		CHANNELS 6 Xposition Yposition Zposition Xrotation Yrotation Zrotation
		JOINT Junyuan_V1:Solving:RightLeg
		{
			OFFSET 0.000000 41.622898 -0.000006
			CHANNELS 6 Xposition Yposition Zposition Xrotation Yrotation Zrotation
			JOINT Junyuan_V1:Solving:RightFoot
			{
				OFFSET 0.000000 37.258389 -0.000006
				CHANNELS 6 Xposition Yposition Zposition Xrotation Yrotation Zrotation
				JOINT Junyuan_V1:Solving:RightForeFoot
				{
					OFFSET 0.000000 3.234154 -0.000000
					CHANNELS 6 Xposition Yposition Zposition Xrotation Yrotation Zrotation
					JOINT Junyuan_V1:Solving:RightToeBase
					{
						OFFSET 0.000000 0.000000 -12.665958
						CHANNELS 6 Xposition Yposition Zposition Xrotation Yrotation Zrotation
						JOINT Junyuan_V1:Solving:RightToeBaseEnd
						{
							OFFSET 0.000000 0.000000 -2.833065
							CHANNELS 6 Xposition Yposition Zposition Xrotation Yrotation Zrotation
							End Site
							{
								OFFSET 0.000000 -2.833061 0.000002
							}
						}
					}
				}
			}
		}
	}
	JOINT Junyuan_V1:Solving:LeftUpLeg
	{
		OFFSET 8.521003 0.000000 0.000000
		CHANNELS 6 Xposition Yposition Zposition Xrotation Yrotation Zrotation
		JOINT Junyuan_V1:Solving:LeftLeg
		{
			OFFSET 0.000000 41.622898 -0.000006
			CHANNELS 6 Xposition Yposition Zposition Xrotation Yrotation Zrotation
			JOINT Junyuan_V1:Solving:LeftFoot
			{
				OFFSET 0.000000 37.258389 -0.000006
				CHANNELS 6 Xposition Yposition Zposition Xrotation Yrotation Zrotation
				JOINT Junyuan_V1:Solving:LeftForeFoot
				{
					OFFSET 0.000000 3.234154 -0.000000
					CHANNELS 6 Xposition Yposition Zposition Xrotation Yrotation Zrotation
					JOINT Junyuan_V1:Solving:LeftToeBase
					{
						OFFSET 0.000000 0.000000 -12.665958
						CHANNELS 6 Xposition Yposition Zposition Xrotation Yrotation Zrotation
						JOINT Junyuan_V1:Solving:LeftToeBaseEnd
						{
							OFFSET 0.000000 0.000000 -4.326123
							CHANNELS 6 Xposition Yposition Zposition Xrotation Yrotation Zrotation
							End Site
							{
								OFFSET 0.000000 -4.326126 0.000000
							}
						}
					}
				}
			}
		}
	}
}
MOTION
Frames: 4
Frame Time: 0.041667
19.654436 29.385729 -87.779526 90.167151 176.033140 1.224743 -0.000000 -8.943184 2.778117 11.281545 -0.113389 -1.543166 0.000000 -9.944828 1.753529 -0.915329 0.093364 -0.022752 -0.000004 -10.059802 0.880121 -5.446138 2.098316 -0.606390 -0.000003 -10.098255 0.000003 -3.676300 0.543891 -0.255243 -0.000005 -12.983405 -1.298320 6.364315 -2.264187 4.373607 -0.000003 -8.085092 -0.707349 -4.770777 -5.306269 -1.658182 -0.000002 -7.992735 -1.409336 -2.958650 -0.086080 -0.954039 0.000001 -9.728088 0.000004 -0.000000 0.000002 0.000000 -0.000008 -9.273865 -6.154337 -0.000008 23.416458 14.878946 -19.110819 -0.000029 -0.000000 -0.113981 -7.292429 -90.626768 -27.916357 -0.000001 0.000007 29.692731 -14.352828 8.045661 -21.757078 -0.000001 -0.000001 0.237068 1.106202 -12.096971 -3.656476 2.766274 -2.718912 0.000003 0.000002 -0.000006 -9.750587 -0.000007 0.062496 0.000003 -0.000000 0.000001 -0.000002 -9.273849 -6.154337 -0.000010 -21.615481 -13.833655 19.110809 -0.000003 0.000003 -2.912470 19.985154 81.412153 27.916365 -0.000015 0.000012 21.092514 9.904211 -3.795671 21.757067 -0.000010 -0.000002 0.238103 -1.752338 7.739237 3.656451 2.766270 -2.718908 0.000000 0.000000 0.000003 9.750595 0.000005 0.062499 -0.000000 0.000001 0.000000 -8.521008 0.000020 -0.000001 4.129671 10.266006 -6.267748 -0.000001 41.622894 -0.000008 1.875035 0.000001 -0.000000 -0.000002 37.258389 -0.000004 2.979984 -6.927308 10.844671 0.000006 3.234146 -0.000000 -0.000001 -0.000000 -0.000001 0.000006 -0.000014 -12.665961 -3.807991 -0.000000 -0.000001 0.000002 -0.000015 -2.833071 0.000000 0.000000 0.000000 8.521006 -0.000004 -0.000003 -2.959843 -4.618058 -9.100656 -0.000001 41.622902 -0.000003 14.682178 0.000001 0.000003 0.000004 37.258427 -0.000014 -0.234710 18.205044 15.737061 -0.000001 3.234146 -0.000004 0.000001 -0.000001 -0.000001 -0.000001 0.000001 -12.665961 -0.647287 -0.000001 -0.000003 0.000001 -0.000008 -4.326125 -0.000001 0.000000 0.000001 
19.785606 29.352173 -87.788971 90.274132 176.099339 1.260625 -0.000001 -8.943199 2.778120 11.419078 -0.128597 -1.626615 0.000004 -9.944803 1.753531 -0.882938 0.096781 -0.021209 -0.000004 -10.059809 0.880121 -5.430074 2.151397 -0.609338 -0.000002 -10.098248 -0.000007 -3.686457 0.556404 -0.257869 0.000000 -12.983407 -1.298347 6.339707 -2.282462 4.397331 0.000000 -8.085123 -0.707352 -4.781320 -5.389770 -1.640854 -0.000000 -7.992656 -1.409329 -2.977163 -0.106525 -0.918736 -0.000001 -9.728096 0.000001 -0.000000 -0.000001 0.000000 0.000002 -9.273861 -6.154363 -0.000006 23.297302 14.673311 -19.110817 -0.000028 0.000000 -0.048491 -8.954712 -90.921470 -27.916367 -0.000005 0.000010 28.740398 -15.009911 8.083552 -21.757088 0.000011 -0.000003 0.175956 0.708634 -13.945354 -3.656450 2.766273 -2.718906 0.000001 -0.000005 -0.000002 -9.750565 -0.000016 0.062499 -0.000001 -0.000002 -0.000000 0.000004 -9.273857 -6.154363 -0.000007 -21.482813 -13.734021 19.110817 0.000003 0.000002 -3.012409 20.415673 82.017192 27.916384 0.000004 0.000002 20.945559 9.821352 -3.735671 21.757061 -0.000006 0.000006 0.260658 -1.901305 7.807643 3.656472 2.766283 -2.718912 -0.000005 -0.000009 0.000001 9.750568 0.000001 0.062497 -0.000003 -0.000001 -0.000005 -8.521006 0.000004 -0.000006 4.248919 10.320304 -6.383479 0.000005 41.622898 -0.000011 1.971351 -0.000000 0.000001 -0.000000 37.258389 -0.000016 3.021513 -7.097116 10.776392 -0.000005 3.234146 0.000001 -0.000001 -0.000000 0.000001 -0.000002 0.000010 -12.665949 -3.560984 -0.000000 -0.000000 -0.000002 -0.000008 -2.833057 0.000000 -0.000000 0.000000 8.521002 -0.000011 -0.000002 -3.589384 -5.077897 -9.388395 0.000000 41.622906 -0.000010 15.962574 0.000000 0.000001 0.000000 37.258389 -0.000009 -0.188506 18.696837 15.988167 -0.000001 3.234146 -0.000002 -0.000002 0.000000 -0.000000 -0.000000 0.000010 -12.665956 -0.903180 0.000001 -0.000002 0.000000 -0.000016 -4.326121 -0.000001 0.000001 0.000000 
19.901035 29.330088 -87.787491 90.337837 176.182981 1.207569 -0.000002 -8.943200 2.778121 11.528662 -0.147076 -1.622001 0.000002 -9.944806 1.753533 -0.864449 0.098909 -0.017219 0.000005 -10.059835 0.880119 -5.415624 2.207072 -0.607388 -0.000001 -10.098205 0.000001 -3.697005 0.576589 -0.259066 -0.000006 -12.983476 -1.298356 6.325282 -2.313060 4.413587 -0.000005 -8.085122 -0.707348 -4.798732 -5.479818 -1.635464 -0.000004 -7.992718 -1.409329 -3.005192 -0.126616 -0.886376 -0.000003 -9.728096 0.000001 0.000000 -0.000002 0.000000 -0.000004 -9.273922 -6.154375 -0.000005 23.174116 14.547162 -19.110815 -0.000033 0.000004 -0.084294 -10.097682 -91.317860 -27.916403 -0.000001 0.000007 28.193926 -15.459964 8.132199 -21.757059 -0.000020 -0.000004 0.031544 0.111369 -15.816925 -3.656453 2.766275 -2.718902 -0.000001 0.000005 -0.000005 -9.750578 -0.000009 0.062514 0.000001 -0.000002 0.000002 0.000001 -9.273937 -6.154373 -0.000005 -21.341850 -13.684820 19.110819 -0.000008 0.000008 -3.149950 20.721035 82.678846 27.916355 -0.000004 0.000005 20.911939 9.753782 -3.703785 21.757061 -0.000006 0.000001 0.273632 -1.970360 7.907811 3.656468 2.766279 -2.718903 0.000006 -0.000002 0.000005 9.750570 -0.000009 0.062505 0.000003 0.000001 -0.000002 -8.521003 0.000013 0.000003 4.297330 10.368782 -6.397900 -0.000001 41.622898 0.000002 2.038177 0.000002 0.000001 0.000003 37.258381 -0.000008 2.988160 -7.157861 10.810769 -0.000000 3.234146 -0.000015 -0.000001 0.000000 0.000000 -0.000001 -0.000004 -12.665966 -3.539056 -0.000000 -0.000000 -0.000003 -0.000008 -2.833063 -0.000000 -0.000000 -0.000001 8.521003 -0.000007 0.000000 -4.264113 -5.422986 -9.580069 0.000002 41.622894 -0.000005 17.287639 0.000000 0.000002 0.000004 37.258385 -0.000001 -0.135087 19.088586 16.328348 0.000001 3.234162 0.000014 -0.000002 -0.000001 0.000002 -0.000001 -0.000009 -12.665953 -0.903750 0.000000 0.000000 -0.000001 -0.000001 -4.326120 -0.000003 0.000001 -0.000001 
20.007959 29.299540 -87.788864 90.452024 176.289641 1.081750 0.000002 -8.943166 2.778125 11.650095 -0.159115 -1.549731 0.000001 -9.944809 1.753538 -0.830629 0.102220 -0.011423 -0.000006 -10.059813 0.880124 -5.378546 2.271511 -0.602419 0.000003 -10.098233 0.000010 -3.657468 0.607107 -0.245946 0.000004 -12.983467 -1.298337 6.282591 -2.363737 4.434820 0.000002 -8.085083 -0.707357 -4.824761 -5.566235 -1.630197 0.000001 -7.992695 -1.409320 -3.058674 -0.147735 -0.852912 0.000000 -9.728096 0.000000 -0.000000 0.000001 -0.000000 -0.000002 -9.273903 -6.154355 -0.000009 23.006029 14.415801 -19.110813 -0.000042 0.000000 -0.170061 -11.202286 -91.723054 -27.916382 0.000010 -0.000003 27.585030 -15.960725 8.175387 -21.757055 -0.000005 -0.000001 -0.114868 -0.362637 -17.576419 -3.656453 2.766274 -2.718900 0.000004 0.000005 -0.000006 -9.750557 -0.000018 0.062503 0.000004 -0.000001 -0.000000 0.000003 -9.273903 -6.154352 -0.000009 -21.269358 -13.593291 19.110825 -0.000023 0.000008 -2.997390 22.185662 83.046884 27.916382 -0.000007 0.000003 19.873137 10.185067 -3.657203 21.757088 0.000012 -0.000006 0.311293 -2.228060 7.955823 3.656466 2.766299 -2.718925 -0.000004 -0.000002 0.000002 9.750565 0.000002 0.062489 -0.000001 0.000002 0.000000 -8.521000 -0.000004 0.000001 4.383585 10.380393 -6.336813 0.000000 41.622890 -0.000016 2.104668 -0.000000 0.000001 -0.000004 37.258396 -0.000008 2.940046 -7.248931 10.842746 0.000004 3.234146 -0.000002 -0.000001 0.000000 0.000000 0.000003 0.000002 -12.665967 -3.510300 -0.000000 -0.000003 0.000005 -0.000008 -2.833064 0.000000 -0.000000 0.000000 8.521006 0.000012 0.000004 -4.776032 -5.464800 -9.629099 -0.000003 41.622910 0.000002 18.493034 -0.000001 0.000000 0.000003 37.258396 -0.000014 0.109196 19.204294 16.595416 0.000000 3.234146 0.000002 -0.000002 -0.000000 -0.000000 0.000002 0.000001 -12.665955 -1.330079 0.000000 -0.000002 -0.000001 -0.000008 -4.326122 -0.000003 0.000001 -0.000000 
